<?xml version="1.0" encoding="UTF-8" standalone="no"?>
<!-- Generator: Adobe Illustrator 18.0.0, SVG Export Plug-In . SVG Version: 6.00 Build 0)  -->

<svg
   xmlns:dc="http://purl.org/dc/elements/1.1/"
   xmlns:cc="http://creativecommons.org/ns#"
   xmlns:rdf="http://www.w3.org/1999/02/22-rdf-syntax-ns#"
   xmlns:svg="http://www.w3.org/2000/svg"
   xmlns="http://www.w3.org/2000/svg"
   xmlns:sodipodi="http://sodipodi.sourceforge.net/DTD/sodipodi-0.dtd"
   xmlns:inkscape="http://www.inkscape.org/namespaces/inkscape"
   version="1.1"
   id="Capa_1"
   x="0px"
   y="0px"
   viewBox="0 0 459.103 459.103"
   style="enable-background:new 0 0 459.103 459.103;"
   xml:space="preserve"
   sodipodi:docname="sprout.svg"
   inkscape:version="0.92.4 (5da689c313, 2019-01-14)"><metadata
   id="metadata39"><rdf:RDF><cc:Work
       rdf:about=""><dc:format>image/svg+xml</dc:format><dc:type
         rdf:resource="http://purl.org/dc/dcmitype/StillImage" /><dc:title></dc:title></cc:Work></rdf:RDF></metadata><defs
   id="defs37" /><sodipodi:namedview
   pagecolor="#ffffff"
   bordercolor="#666666"
   borderopacity="1"
   objecttolerance="10"
   gridtolerance="10"
   guidetolerance="10"
   inkscape:pageopacity="0"
   inkscape:pageshadow="2"
   inkscape:window-width="1920"
   inkscape:window-height="1013"
   id="namedview35"
   showgrid="false"
   inkscape:zoom="0.51404587"
   inkscape:cx="229.5515"
   inkscape:cy="229.5515"
   inkscape:window-x="-9"
   inkscape:window-y="-9"
   inkscape:window-maximized="1"
   inkscape:current-layer="Capa_1" />
<path
   d="m 450.312,196.44 -201.05183,1.94535 v -2.638 c 0,-0.168 -0.006,-0.336 -0.006,-0.505 h 0.004 c 0.616,-30.19 12.244,-58.657 32.827,-80.608 2.705,0.282 5.397,0.437 8.068,0.437 37.321,0 70.392,-26.978998 76.793,-64.981998 0.567,-3.363 -0.924,-6.858 -4.071,-8.749 -0.906,-0.544 -1.926,-0.882 -2.969,-1.057 -20.502,-3.435 -41.113,1.311 -58.051,13.365 -16.35,11.637 -27.365,28.749 -31.232,48.356998 -13.031,13.626 -22.988,29.517 -29.494,46.764 -6.185,-17.209 -28.521,-47.148 -28.544,-47.288 -9.066,-53.831998 -60.237,-90.249998 -114.072005,-81.183998 -2.223,0.375 -4.206,1.617 -5.513,3.453 -1.308,1.837 -1.832,4.118 -1.457,6.34 4.392,26.078 18.677005,48.884 40.222005,64.218 16.952,12.063998 36.801,18.366998 57.196,18.366998 3.32,0 6.655,-0.188 9.994,-0.524 21.501,22.673 33.305,52.228 33.305,83.597 v 2.638 L 8.791,196.441 c -4.5268285,-0.0394 -8.48,3.416 -8.773,7.934 -0.321,4.951 3.6,9.066 8.482,9.066 l 223.76017,1.94535 v 0 c 0,5.286 -0.937,10.526 -2.766,15.485 -2.841,7.704 -7.348,19.764 -10.967,28.725 -3.18,7.876 -9.111,14.328 -16.718,18.105 -14.916,7.408 -40.978,14.914 -68.547,-2.316 -4.117,-2.574 -9.598,-1.189 -11.966,3.136 -2.182,3.984 -0.667,9.03 3.192,11.427 13.907,8.636 28.887,12.996 44.264,12.996 6.375,0 12.82,-0.757 19.282,-2.263 -9.438,7.818 -20.179,14.162 -31.911,18.69 -21.38,8.252 -39.877,21.783 -54.054,38.931 -14.603005,1.696 -65.619005,10.328 -73.678005,48.607 -0.968,4.593 1.973,9.102 6.566,10.069 0.59,0.124 1.18,0.184 1.76,0.184 3.934,0 7.466,-2.748 8.309,-6.751 2.651,-12.591 13.441,-22.349 32.072,-29.004 3.95,-1.411 7.861,-2.526 11.491,-3.407 -5.833,10.446 -10.282,21.759 -13.122,33.687 l -5.005,21.019 c -1.088,4.566 1.732,9.15 6.3,10.237 0.662,0.158 1.324,0.233 1.976,0.233 3.846,0 7.332,-2.628 8.262,-6.533 l 5.005,-21.019 c 7.248,-30.439 26.522005,-56.278 52.955005,-71.983 -2.752,15.852 -1.675,39.188 17.021,64.116 1.67,2.227 4.222,3.4 6.807,3.4 1.943,0 3.905,-0.664 5.521,-2.044 3.418,-2.918 3.838,-8.119 1.149,-11.721 -21.984,-29.449 -13.565,-55.455 -10.082,-63.42 25.691,-10.671 47.031,-28.998 61.396,-52.237 l -2.999,18.592 c -1.992,12.345 1.993,25.118 11.25,33.525 4.348,3.949 6.694,9.587 6.433,15.453 -0.26,5.835 -3.07,11.216 -7.709,14.764 l -24.057,18.396 c -3.558,2.721 -4.64,7.762 -2.207,11.523 1.652,2.554 4.386,3.9 7.154,3.9 1.801,0 3.616,-0.57 5.157,-1.749 l 14.462,-11.059 c 1.677,9.293 1.738,22.977 -7.911,34.581 -2.948,3.546 -2.86,8.875 0.539,11.991 1.641,1.505 3.699,2.239 5.745,2.239 2.415,0 4.813,-1.024 6.495,-3.013 17.887,-21.159 13.156,-46.373 9.683,-57.637 5.799,-6.304 9.244,-14.468 9.632,-23.179 0.485,-10.895 -3.857,-21.37 -11.912,-28.726 -4.875,-4.452 -7.135,-11.087 -6.084,-17.604 l 5.227,-32.399 11.618,39.636 c 2.41499,8.239 7.159,15.18 13.304,20.321 4.423,5.388 30.107,38.464 15.366,62.594 -2.266,3.709 -1.723,8.598 1.648,11.341 1.612,1.311 3.514,1.931 5.388,1.931 2.833,0 5.604,-1.416 7.216,-3.996 9.775,-15.641 9.667,-35.329 -0.312,-56.936 -0.813,-1.759 -1.66,-3.455 -2.522,-5.092 3.936,0.022 7.936,-0.504 11.901,-1.655 12.534,-3.642 25.891,3.104 30.404,15.354 6.231,16.916 16.619,31.829 29.868,43.533 -0.57,2.158 -1.097,4.784 -1.388,7.82 -1.049,10.938 1.394,22.463 7.063,33.329 1.517,2.907 4.478,4.57 7.543,4.57 1.481,-10e-4 2.985,-0.388 4.363,-1.211 3.9,-2.327 5.114,-7.442 3.034,-11.479 -4.463,-8.662 -5.451,-16.142 -5.227,-21.686 7.855,4.788 16.352,8.6 25.316,11.256 l 6.245,1.851 c 0.806,0.239 1.619,0.353 2.419,0.353 3.811,0 7.319,-2.586 8.265,-6.533 1.065,-4.444 -1.765,-8.908 -6.146,-10.206 l -5.953,-1.764 c -24.553,-7.275 -44.968,-24.793 -56.029,-47.662 0.804,0.183 1.618,0.357 2.452,0.516 4.249,0.81 8.436,1.211 12.544,1.211 14.949,0 28.842,-5.325 40.711,-15.71 3.532,-3.091 3.891,-8.461 0.799,-11.994 -3.089,-3.533 -8.46,-3.891 -11.994,-0.8 -26.562,23.243 -56.497,4.257 -57.846,3.379 -0.018,-0.012 -0.034,-0.015 -0.051,-0.025 -10.533,-10.311 -26.175,-14.768 -41.132,-10.428 -13.194,3.832 -27.071,-3.778 -30.935,-16.962 l -0.86,-2.935 c 4.41,1.562 9.032,2.353 13.661,2.353 5.27,0 10.546,-1.016 15.517,-3.055 4.24,-1.739 6.544,-6.547 4.975,-10.853 -1.673,-4.589 -6.811,-6.804 -11.271,-4.94 -6.355,2.659 -13.281,2.492 -19.503,-0.472 -6.22,-2.964 -10.713,-8.238 -12.649,-14.845 l -12.019,-40.855 c -1.452,-4.936 -2.19,-10.056 -2.19,-15.201 v 0 L 450.607,213.441 c 4.88177,-0.0472 8.802,-4.115 8.482,-9.066 -0.297,-4.519 -4.25,-7.935 -8.777,-7.935 z M 311.71317,67.499352 c 10.726,-7.634 23.312,-11.521 36.263,-11.292 -3.34863,10.187641 -9.25249,19.044176 -16.85078,25.954403 -11.21687,10.201125 -26.12637,16.160716 -41.95922,15.899597 4.02,-12.285 11.82,-22.928 22.547,-30.562 z m -170.091,12.959 c -15.382,-10.947 -26.295,-26.492 -31.346,-44.407 38.234,-2.215 73.143,22.644 83.57,59.477 -18.568,1.099 -36.843,-4.123 -52.224,-15.07 z"
   id="path2"
   inkscape:connector-curvature="0"
   sodipodi:nodetypes="scscccscccccccccccscscscsccccccccscccccsccccccsccccsccccccccccsccccsccccccscccsccccccccccccccscccccsccccccccsccccccccscsccscccccc"
   style="fill-opacity:1;fill:#006809" />
<g
   id="g4">
</g>
<g
   id="g6">
</g>
<g
   id="g8">
</g>
<g
   id="g10">
</g>
<g
   id="g12">
</g>
<g
   id="g14">
</g>
<g
   id="g16">
</g>
<g
   id="g18">
</g>
<g
   id="g20">
</g>
<g
   id="g22">
</g>
<g
   id="g24">
</g>
<g
   id="g26">
</g>
<g
   id="g28">
</g>
<g
   id="g30">
</g>
<g
   id="g32">
</g>
<rect
   style="opacity:1;fill:#000000;fill-opacity:1;stroke-width:0.67419988"
   id="rect856"
   width="468.82974"
   height="19.453516"
   x="0"
   y="194.53516" /></svg>